<?xml version="1.0" encoding="UTF-8" standalone="no"?>
<svg
   version="1.0"
   width="250"
   height="100"
   id="svg133"
   sodipodi:docname="logo.svg"
   inkscape:version="1.1.2 (76b9e6a115, 2022-02-25)"
   inkscape:export-filename="/home/user/Documents/David/Geek_projects/emhass-add-on/logo.png"
   inkscape:export-xdpi="96"
   inkscape:export-ydpi="96"
   xmlns:inkscape="http://www.inkscape.org/namespaces/inkscape"
   xmlns:sodipodi="http://sodipodi.sourceforge.net/DTD/sodipodi-0.dtd"
   xmlns="http://www.w3.org/2000/svg"
   xmlns:svg="http://www.w3.org/2000/svg"
   xmlns:rdf="http://www.w3.org/1999/02/22-rdf-syntax-ns#"
   xmlns:cc="http://creativecommons.org/ns#"
   xmlns:dc="http://purl.org/dc/elements/1.1/">
  <metadata
     id="metadata137">
    <rdf:RDF>
      <cc:Work
         rdf:about="">
        <dc:format>image/svg+xml</dc:format>
        <dc:type
           rdf:resource="http://purl.org/dc/dcmitype/StillImage" />
      </cc:Work>
    </rdf:RDF>
  </metadata>
  <sodipodi:namedview
     pagecolor="#ffffff"
     bordercolor="#666666"
     borderopacity="1"
     objecttolerance="10"
     gridtolerance="10"
     guidetolerance="10"
     inkscape:pageopacity="0"
     inkscape:pageshadow="2"
     inkscape:window-width="1920"
     inkscape:window-height="1044"
     id="namedview135"
     showgrid="false"
     inkscape:zoom="4.0000001"
     inkscape:cx="153.75"
     inkscape:cy="56.499999"
     inkscape:window-x="1366"
     inkscape:window-y="0"
     inkscape:window-maximized="1"
     inkscape:current-layer="svg133"
     inkscape:document-rotation="0"
     fit-margin-top="0"
     fit-margin-left="0"
     fit-margin-right="0"
     fit-margin-bottom="0"
     inkscape:pagecheckerboard="0"
     inkscape:document-units="mm"
     showguides="false"
     units="px"
     width="250px" />
  <defs
     id="defs9">
    <marker
       style="overflow:visible"
       id="marker1868"
       refX="0"
       refY="0"
       orient="auto"
       inkscape:stockid="Arrow1Send"
       inkscape:isstock="true">
      <path
         transform="matrix(-0.2,0,0,-0.2,-1.2,0)"
         style="fill:#000000;fill-opacity:1;fill-rule:evenodd;stroke:#000000;stroke-width:1pt;stroke-opacity:1"
         d="M 0,0 5,-5 -12.5,0 5,5 Z"
         id="path1866" />
    </marker>
    <marker
       style="overflow:visible"
       id="marker1816"
       refX="0"
       refY="0"
       orient="auto"
       inkscape:stockid="Arrow1Sstart"
       inkscape:isstock="true">
      <path
         transform="matrix(0.2,0,0,0.2,1.2,0)"
         style="fill:#000000;fill-opacity:1;fill-rule:evenodd;stroke:#000000;stroke-width:1pt;stroke-opacity:1"
         d="M 0,0 5,-5 -12.5,0 5,5 Z"
         id="path1814" />
    </marker>
    <marker
       style="overflow:visible"
       id="Arrow1Mstart"
       refX="0"
       refY="0"
       orient="auto"
       inkscape:stockid="Arrow1Mstart"
       inkscape:isstock="true">
      <path
         transform="matrix(0.4,0,0,0.4,4,0)"
         style="fill:#000000;fill-opacity:1;fill-rule:evenodd;stroke:#000000;stroke-width:1pt;stroke-opacity:1"
         d="M 0,0 5,-5 -12.5,0 5,5 Z"
         id="path1446" />
    </marker>
    <marker
       style="overflow:visible"
       id="Arrow1Lstart"
       refX="0"
       refY="0"
       orient="auto"
       inkscape:stockid="Arrow1Lstart"
       inkscape:isstock="true">
      <path
         transform="matrix(0.8,0,0,0.8,10,0)"
         style="fill:#000000;fill-opacity:1;fill-rule:evenodd;stroke:#000000;stroke-width:1pt;stroke-opacity:1"
         d="M 0,0 5,-5 -12.5,0 5,5 Z"
         id="path1440" />
    </marker>
    <inkscape:path-effect
       effect="bspline"
       id="path-effect1026"
       is_visible="true"
       weight="33.333333"
       steps="2"
       helper_size="0"
       apply_no_weight="true"
       apply_with_weight="true"
       only_selected="false"
       lpeversion="0" />
    <inkscape:path-effect
       effect="bspline"
       id="path-effect1022"
       is_visible="true"
       weight="33.333333"
       steps="2"
       helper_size="0"
       apply_no_weight="true"
       apply_with_weight="true"
       only_selected="false"
       lpeversion="0" />
    <inkscape:path-effect
       effect="bspline"
       id="path-effect1018"
       is_visible="true"
       weight="33.333333"
       steps="2"
       helper_size="0"
       apply_no_weight="true"
       apply_with_weight="true"
       only_selected="false"
       lpeversion="0" />
    <inkscape:path-effect
       effect="bspline"
       id="path-effect1014"
       is_visible="true"
       weight="33.333333"
       steps="2"
       helper_size="0"
       apply_no_weight="true"
       apply_with_weight="true"
       only_selected="false"
       lpeversion="0" />
    <inkscape:path-effect
       effect="bspline"
       id="path-effect1010"
       is_visible="true"
       weight="33.333333"
       steps="2"
       helper_size="0"
       apply_no_weight="true"
       apply_with_weight="true"
       only_selected="false"
       lpeversion="0" />
    <inkscape:path-effect
       effect="bspline"
       id="path-effect1006"
       is_visible="true"
       weight="33.333333"
       steps="2"
       helper_size="0"
       apply_no_weight="true"
       apply_with_weight="true"
       only_selected="false"
       lpeversion="0" />
    <inkscape:path-effect
       effect="bspline"
       id="path-effect1002"
       is_visible="true"
       weight="33.333333"
       steps="2"
       helper_size="0"
       apply_no_weight="true"
       apply_with_weight="true"
       only_selected="false"
       lpeversion="0" />
    <inkscape:path-effect
       effect="bspline"
       id="path-effect998"
       is_visible="true"
       weight="33.333333"
       steps="2"
       helper_size="0"
       apply_no_weight="true"
       apply_with_weight="true"
       only_selected="false"
       lpeversion="0" />
    <inkscape:path-effect
       effect="bspline"
       id="path-effect994"
       is_visible="true"
       weight="33.333333"
       steps="2"
       helper_size="0"
       apply_no_weight="true"
       apply_with_weight="true"
       only_selected="false"
       lpeversion="0" />
    <inkscape:path-effect
       effect="bspline"
       id="path-effect990"
       is_visible="true"
       weight="33.333333"
       steps="2"
       helper_size="0"
       apply_no_weight="true"
       apply_with_weight="true"
       only_selected="false"
       lpeversion="0" />
    <inkscape:path-effect
       effect="bspline"
       id="path-effect986"
       is_visible="true"
       weight="33.333333"
       steps="2"
       helper_size="0"
       apply_no_weight="true"
       apply_with_weight="true"
       only_selected="false"
       lpeversion="0" />
    <inkscape:path-effect
       effect="bspline"
       id="path-effect982"
       is_visible="true"
       weight="33.333333"
       steps="2"
       helper_size="0"
       apply_no_weight="true"
       apply_with_weight="true"
       only_selected="false"
       lpeversion="0" />
    <inkscape:path-effect
       effect="bspline"
       id="path-effect978"
       is_visible="true"
       weight="33.333333"
       steps="2"
       helper_size="0"
       apply_no_weight="true"
       apply_with_weight="true"
       only_selected="false"
       lpeversion="0" />
    <inkscape:path-effect
       effect="bspline"
       id="path-effect974"
       is_visible="true"
       weight="33.333333"
       steps="2"
       helper_size="0"
       apply_no_weight="true"
       apply_with_weight="true"
       only_selected="false"
       lpeversion="0" />
    <inkscape:path-effect
       effect="bspline"
       id="path-effect970"
       is_visible="true"
       weight="33.333333"
       steps="2"
       helper_size="0"
       apply_no_weight="true"
       apply_with_weight="true"
       only_selected="false"
       lpeversion="0" />
    <inkscape:path-effect
       effect="bspline"
       id="path-effect966"
       is_visible="true"
       weight="33.333333"
       steps="2"
       helper_size="0"
       apply_no_weight="true"
       apply_with_weight="true"
       only_selected="false"
       lpeversion="0" />
    <inkscape:path-effect
       effect="bspline"
       id="path-effect962"
       is_visible="true"
       weight="33.333333"
       steps="2"
       helper_size="0"
       apply_no_weight="true"
       apply_with_weight="true"
       only_selected="false"
       lpeversion="0" />
    <inkscape:path-effect
       effect="bspline"
       id="path-effect958"
       is_visible="true"
       weight="33.333333"
       steps="2"
       helper_size="0"
       apply_no_weight="true"
       apply_with_weight="true"
       only_selected="false"
       lpeversion="0" />
    <inkscape:path-effect
       effect="bspline"
       id="path-effect954"
       is_visible="true"
       weight="33.333333"
       steps="2"
       helper_size="0"
       apply_no_weight="true"
       apply_with_weight="true"
       only_selected="false"
       lpeversion="0" />
    <inkscape:path-effect
       effect="bspline"
       id="path-effect948"
       is_visible="true"
       weight="33.333333"
       steps="2"
       helper_size="0"
       apply_no_weight="true"
       apply_with_weight="true"
       only_selected="false"
       lpeversion="0" />
    <inkscape:path-effect
       effect="bspline"
       id="path-effect944"
       is_visible="true"
       weight="33.333333"
       steps="2"
       helper_size="0"
       apply_no_weight="true"
       apply_with_weight="true"
       only_selected="false"
       lpeversion="0" />
    <clipPath
       clipPathUnits="userSpaceOnUse"
       id="clipEmfPath1">
      <path
         d="M -15.203019,-7.5214934 H 648.12869 V 903.21934 H -15.203019 Z"
         id="path2"
         inkscape:connector-curvature="0" />
    </clipPath>
    <clipPath
       clipPathUnits="userSpaceOnUse"
       id="clipEmfPath2">
      <path
         d=""
         id="path5"
         inkscape:connector-curvature="0" />
    </clipPath>
    <pattern
       id="EMFhbasepattern"
       patternUnits="userSpaceOnUse"
       width="6"
       height="6"
       x="0"
       y="0" />
    <filter
       style="color-interpolation-filters:sRGB"
       inkscape:label="Drop Shadow"
       id="filter223">
      <feFlood
         flood-opacity="0.498039"
         flood-color="rgb(0,0,0)"
         result="flood"
         id="feFlood213" />
      <feComposite
         in="flood"
         in2="SourceGraphic"
         operator="in"
         result="composite1"
         id="feComposite215" />
      <feGaussianBlur
         in="composite1"
         stdDeviation="3"
         result="blur"
         id="feGaussianBlur217" />
      <feOffset
         dx="6"
         dy="6"
         result="offset"
         id="feOffset219" />
      <feComposite
         in="SourceGraphic"
         in2="offset"
         operator="over"
         result="composite2"
         id="feComposite221" />
    </filter>
    <marker
       style="overflow:visible"
       id="marker1816-9"
       refX="0"
       refY="0"
       orient="auto"
       inkscape:stockid="Arrow1Sstart"
       inkscape:isstock="true">
      <path
         transform="matrix(0.2,0,0,0.2,1.2,0)"
         style="fill:#000000;fill-opacity:1;fill-rule:evenodd;stroke:#000000;stroke-width:1pt;stroke-opacity:1"
         d="M 0,0 5,-5 -12.5,0 5,5 Z"
         id="path1814-4" />
    </marker>
    <marker
       style="overflow:visible"
       id="marker1868-3"
       refX="0"
       refY="0"
       orient="auto"
       inkscape:stockid="Arrow1Send"
       inkscape:isstock="true">
      <path
         transform="matrix(-0.2,0,0,-0.2,-1.2,0)"
         style="fill:#000000;fill-opacity:1;fill-rule:evenodd;stroke:#000000;stroke-width:1pt;stroke-opacity:1"
         d="M 0,0 5,-5 -12.5,0 5,5 Z"
         id="path1866-1" />
    </marker>
  </defs>
  <text
     xml:space="preserve"
     style="font-style:normal;font-variant:normal;font-weight:400;font-size:24px;line-height:125%;font-family:Calibri;text-align:start;letter-spacing:0px;word-spacing:0px;text-anchor:start;fill:#000000;fill-opacity:1;stroke:none"
     x="333.43698"
     y="64.989426"
     id="text77"
     inkscape:export-xdpi="200"
     inkscape:export-ydpi="200"><tspan
       sodipodi:role="line"
       x="0"
       y="0"
       id="tspan75"><tspan
         style="font-style:normal;font-variant:normal;font-weight:400;font-size:24px;font-family:Calibri;fill:#000000"
         id="tspan73" /></tspan></text>
  <text
     xml:space="preserve"
     style="font-style:normal;font-variant:normal;font-weight:400;font-size:24px;line-height:125%;font-family:Calibri;text-align:start;letter-spacing:0px;word-spacing:0px;text-anchor:start;fill:#000000;fill-opacity:1;stroke:none"
     x="821.61224"
     y="540.90668"
     id="text95"
     inkscape:export-xdpi="200"
     inkscape:export-ydpi="200"><tspan
       sodipodi:role="line"
       x="0"
       y="0"
       id="tspan93"><tspan
         style="font-style:normal;font-variant:normal;font-weight:400;font-size:24px;font-family:Calibri;fill:#000000"
         id="tspan91" /></tspan></text>
  <g
     clip-path="url(#clipEmfPath1)"
     id="g125"
     inkscape:export-xdpi="200"
     inkscape:export-ydpi="200"
     transform="translate(238.03655,41.35166)" />
  <path
     style="fill:#4d4d4d;fill-opacity:1;fill-rule:nonzero;stroke:none"
     clip-path="url(#clipEmfPath2)"
     d="m 74.019273,833.8563 h 31.108697 c 2.43037,0 3.88859,-1.69194 3.88859,-3.8673 v -73.4786 c 0,-1.20853 -0.24304,-2.41706 -1.45822,-3.14218 L 57.006705,714.69527 c -1.45822,-1.20853 -3.402514,-1.20853 -4.617697,0 L 1.8373764,753.36822 c -1.21518346,0.72512 -1.70125684,1.93365 -1.70125684,3.14218 v 73.4786 c 0,2.17536 1.70125684,3.8673 3.88858704,3.8673 H 35.133403 c 2.430367,0 3.888587,-1.69194 3.888587,-3.8673 V 795.18335 H 70.130686 V 829.989 c 0,2.17536 1.701257,3.8673 3.888587,3.8673 z"
     id="path127"
     inkscape:connector-curvature="0"
     inkscape:export-xdpi="200"
     inkscape:export-ydpi="200"
     transform="translate(238.03655,41.35166)" />
  <flowRoot
     xml:space="preserve"
     id="flowRoot903"
     style="font-style:normal;font-weight:normal;font-size:40px;line-height:1.25;font-family:sans-serif;letter-spacing:0px;word-spacing:0px;fill:#000000;fill-opacity:1;stroke:none"
     inkscape:export-xdpi="200"
     inkscape:export-ydpi="200"
     transform="translate(238.03655,41.35166)"><flowRegion
       id="flowRegion905"><rect
         id="rect907"
         width="260.39343"
         height="322.11633"
         x="-69.438248"
         y="-88.726639" /></flowRegion><flowPara
       id="flowPara909" /></flowRoot>
  <path
     style="fill:#000000"
     id="path243"
     d="" />
  <path
     style="fill:#000000"
     id="path241"
     d="" />
  <path
     style="fill:#000000"
     id="path239"
     d="" />
  <path
     style="fill:#000000;stroke-width:0.341511"
     d=""
     id="path281" />
  <g
     id="g395"
     transform="matrix(0.44429846,0,0,0.44429846,44.823689,88.602939)">
    <rect
       style="fill:#41bdf5;fill-opacity:1;stroke-width:1.05548"
       id="rect492"
       width="447.33908"
       height="112.47858"
       x="-96.839302"
       y="-140.37933" />
    <text
       xml:space="preserve"
       style="font-style:normal;font-variant:normal;font-weight:400;font-size:96.4441px;line-height:125%;font-family:Calibri;text-align:start;letter-spacing:0px;word-spacing:0px;text-anchor:start;fill:#000000;fill-opacity:1;stroke:none;stroke-width:1.80833"
       x="-77.227951"
       y="-49.058483"
       id="text65"
       inkscape:export-xdpi="200"
       inkscape:export-ydpi="200"><tspan
         sodipodi:role="line"
         x="-77.227951"
         y="-49.058483"
         id="tspan63"
         style="font-style:italic;font-variant:normal;font-weight:normal;font-stretch:normal;font-size:96.4441px;font-family:Calibri;-inkscape-font-specification:'Calibri Italic';stroke-width:1.80833">EMHASS</tspan></text>
    <path
       style="fill:#41bdf5;stroke:none;stroke-width:0.499905"
       d="M 345.55746,-140.37934 V -27.90076 H 458.03607 V -140.37934 H 345.55746 m 79.98478,38.49266 c 0.001,-1.44622 -0.32544,-3.57076 0.80135,-4.6974 1.43972,-1.43917 7.95548,-1.43937 9.39521,0 2.80047,2.80086 0.039,11.021754 0.96032,14.695504 1.23426,4.92256 16.71083,14.49224 3.84026,14.49724 h -3.99923 v 22.995617 l -0.87084,7.98448 -8.62736,0.51391 c -10.9375,0.08363 0.79698,0 -50.49035,0 l -8.6272,-0.51391 -0.87099,-7.98448 v -22.995617 c -2.20668,0 -8.37575,1.0688 -9.37012,-1.5737 -1.02025,-2.71149 5.09199,-7.23063 6.75062,-9.08677 7.89855,-8.83892 16.74026,-16.944224 25.11522,-25.332674 2.77847,-2.78292 8.10646,-11.39873 12.49762,-11.03955 2.71848,0.22236 5.241,3.72319 6.97917,5.54059 5.46246,5.71262 10.92142,11.40163 16.51636,16.99676"
       id="path249"
       sodipodi:nodetypes="ccccccccccccccccccscsscc" />
    <path
       style="fill:#000000;stroke-width:0.0532206"
       d="m 396.55863,-52.246915 c -0.16115,-0.06069 -0.43246,-0.227758 -0.53028,-0.32655 -0.0643,-0.06496 -0.26047,-0.363978 -0.26355,-0.401804 -8.1e-4,-0.01471 -0.0207,-0.05602 -0.0431,-0.09179 -0.0225,-0.03578 -0.0521,-0.168147 -0.0657,-0.294147 -0.0136,-0.126002 -0.039,-0.361459 -0.0566,-0.523241 -0.0175,-0.161781 -0.0354,-0.342281 -0.0394,-0.40111 -0.007,-0.09876 -0.1174,-0.181822 -0.28966,-0.217757 -0.0387,-0.0081 -0.11019,-0.0325 -0.1589,-0.05428 -0.0487,-0.0218 -0.10046,-0.04378 -0.11502,-0.04885 -0.12689,-0.04427 -0.30837,-0.127458 -0.73021,-0.334729 l -0.4919,-0.241689 -0.12057,0.114395 c -0.0664,0.06292 -0.14515,0.114394 -0.17517,0.114394 -0.0301,0 -0.0996,0.05022 -0.15459,0.111601 -0.14142,0.157808 -0.49949,0.39429 -0.70835,0.467807 -0.22475,0.07913 -0.67451,0.08026 -0.90815,0.0023 -0.18567,-0.06194 -1.59966,-1.421228 -1.55476,-1.494588 0.0127,-0.02072 -0.0109,-0.06612 -0.0525,-0.100899 -0.0956,-0.08008 -0.15462,-0.328316 -0.15964,-0.670883 -0.005,-0.310803 0.14447,-0.659446 0.39433,-0.922555 0.0907,-0.0956 0.14891,-0.173815 0.12916,-0.173815 -0.0197,0 0.0629,-0.10814 0.18346,-0.240311 l 0.21935,-0.240313 -0.20527,-0.414836 c -0.11289,-0.228159 -0.23552,-0.511102 -0.27248,-0.628761 -0.037,-0.117659 -0.0939,-0.247707 -0.12651,-0.288996 -0.0326,-0.04128 -0.0515,-0.08382 -0.042,-0.09448 0.009,-0.01068 0.002,-0.09121 -0.0174,-0.178967 -0.0294,-0.134892 -0.0606,-0.160185 -0.20262,-0.163645 -0.0923,-0.0022 -0.21558,-0.0145 -0.27383,-0.02722 -0.0583,-0.01272 -0.21318,-0.0355 -0.34426,-0.05061 -0.64622,-0.07452 -1.15794,-0.415688 -1.24082,-0.827257 -0.004,-0.01471 -0.0281,-0.06284 -0.0558,-0.106965 -0.0641,-0.10184 -0.0757,-1.84472 -0.0139,-2.05903 0.0254,-0.0883 0.0517,-0.18452 0.0582,-0.21393 0.0498,-0.22449 0.35662,-0.55574 0.64325,-0.69437 0.23808,-0.11515 0.23484,-0.11439 0.68155,-0.16054 0.1786,-0.0185 0.3843,-0.0418 0.45712,-0.052 0.0729,-0.0101 0.1603,-0.0208 0.1944,-0.0237 0.0519,-0.004 0.14318,-0.25918 0.12632,-0.35261 -0.004,-0.0155 0.0316,-0.0999 0.0764,-0.18751 0.0449,-0.0876 0.0818,-0.17136 0.082,-0.18606 6e-4,-0.0549 0.0697,-0.22491 0.22797,-0.56268 0.0896,-0.1912 0.16379,-0.36448 0.16481,-0.38507 8.1e-4,-0.0206 0.0293,-0.0651 0.0628,-0.0989 0.0458,-0.0463 0.0234,-0.11763 -0.0913,-0.28908 -0.0837,-0.12519 -0.18826,-0.2579 -0.23241,-0.2949 -0.0441,-0.037 -0.0672,-0.0886 -0.0514,-0.1147 0.0159,-0.0261 -0.008,-0.0474 -0.0536,-0.0474 -0.0454,0 -0.0773,-0.018 -0.0707,-0.0401 0.006,-0.0221 -0.0285,-0.10067 -0.0775,-0.17469 -0.20023,-0.30208 -0.26296,-0.66463 -0.17177,-0.99273 0.0554,-0.19959 0.051,-0.18649 0.11835,-0.34343 0.0885,-0.20603 1.28141,-1.36727 1.54436,-1.50335 0.30232,-0.15646 0.79713,-0.16474 1.14333,-0.0191 0.13325,0.056 0.46879,0.3122 0.7296,0.55699 0.16819,0.15786 0.2145,0.17751 0.29128,0.12359 0.11546,-0.0811 0.73019,-0.38818 0.77704,-0.38818 0.0192,0 0.13504,-0.0455 0.25725,-0.10106 0.12218,-0.0556 0.36515,-0.14458 0.53993,-0.19778 0.17477,-0.0532 0.32742,-0.1037 0.33919,-0.11221 0.0119,-0.008 0.0275,-0.10603 0.0352,-0.21669 0.0174,-0.256 0.10435,-0.82248 0.13139,-0.85636 0.006,-0.007 0.0145,-0.0314 0.0191,-0.0535 0.0502,-0.23701 0.36412,-0.57896 0.66676,-0.72631 0.2175,-0.10589 0.32322,-0.11615 1.20907,-0.11743 0.53393,-7.8e-4 0.98219,0.0173 0.99616,0.0401 0.014,0.0228 0.0799,0.0415 0.14647,0.0415 0.0666,0 0.16421,0.0481 0.21693,0.10697 0.0527,0.0588 0.1177,0.10696 0.1444,0.10696 0.0882,0 0.37038,0.37257 0.43296,0.57169 0.0525,0.16708 0.14975,0.79916 0.16024,1.04167 0.005,0.10849 0.0593,0.16845 0.16841,0.18461 0.0451,0.007 0.12189,0.0296 0.1706,0.0511 0.0487,0.0214 0.13434,0.0478 0.19031,0.0587 0.056,0.0109 0.12747,0.0404 0.15889,0.0656 0.0314,0.0252 0.11669,0.0635 0.18951,0.085 0.19576,0.0579 0.78591,0.34462 0.81835,0.39761 0.0154,0.0252 0.0885,0.0611 0.16236,0.0799 0.104,0.0264 0.17283,-0.002 0.30501,-0.12753 0.0939,-0.0889 0.18989,-0.16169 0.21332,-0.16182 0.0234,-1.7e-4 0.11875,-0.0723 0.21184,-0.16045 0.0931,-0.0881 0.19905,-0.16332 0.23546,-0.16713 0.11513,-0.0121 0.14397,-0.0209 0.21291,-0.0651 0.0842,-0.0541 0.65432,-0.0345 0.73129,0.0251 0.0314,0.0243 0.1102,0.0524 0.17506,0.0624 0.17083,0.0263 1.41311,1.29539 1.56158,1.59526 0.096,0.19386 0.12095,0.32741 0.11513,0.61608 -0.005,0.20271 -0.0298,0.40419 -0.057,0.44773 -0.0274,0.0435 -0.05,0.0931 -0.0503,0.11006 -7.9e-4,0.0438 -0.23072,0.34605 -0.46421,0.61123 -0.20596,0.23391 -0.24599,0.38501 -0.13239,0.49972 0.0363,0.0368 0.0682,0.0837 0.0707,0.10429 0.006,0.0483 0.0641,0.19272 0.19852,0.49203 0.0594,0.13236 0.11365,0.27263 0.12052,0.31169 0.007,0.0391 0.0298,0.11127 0.051,0.16045 0.0211,0.0492 0.0474,0.13566 0.0581,0.19218 0.0107,0.0565 0.0399,0.12872 0.0648,0.16044 0.0248,0.0317 0.0384,0.0998 0.0301,0.15127 -0.008,0.0515 0.0127,0.096 0.0465,0.0989 0.13428,0.0116 0.33652,0.039 0.53817,0.073 0.11652,0.0196 0.28074,0.0471 0.36493,0.061 0.45523,0.0753 0.82237,0.37663 0.9848,0.80834 0.0889,0.23614 0.0992,0.38668 0.0842,1.22512 -0.0171,0.96606 -0.0353,1.094231 -0.17923,1.263422 -0.0437,0.05148 -0.0593,0.09359 -0.0345,0.09359 0.0247,0 -0.0358,0.08423 -0.13459,0.187186 -0.0988,0.102951 -0.20782,0.187183 -0.24223,0.187183 -0.0344,0 -0.0927,0.03668 -0.12957,0.08151 -0.0369,0.04483 -0.0793,0.06911 -0.0943,0.05395 -0.015,-0.01517 -0.0533,-0.006 -0.0851,0.02034 -0.0318,0.02635 -0.21275,0.06359 -0.40209,0.08276 -0.18934,0.01918 -0.40381,0.04315 -0.47663,0.05329 -0.0729,0.01014 -0.1628,0.02081 -0.19993,0.02374 -0.0372,0.0029 -0.0915,0.07148 -0.12074,0.152379 -0.0292,0.08089 -0.068,0.183173 -0.0861,0.227296 -0.0181,0.04413 -0.0394,0.112184 -0.0473,0.15125 -0.008,0.03907 -0.0321,0.111266 -0.0536,0.160445 -0.0216,0.04918 -0.0418,0.101449 -0.0448,0.116157 -0.02,0.09574 -0.46366,0.962557 -0.50618,0.989096 -0.0582,0.03635 0.0868,0.264312 0.35652,0.560551 0.0944,0.103674 0.17189,0.210671 0.17213,0.237769 2.7e-4,0.02711 0.0329,0.08726 0.0727,0.133703 0.12187,0.142654 0.22988,0.553516 0.20983,0.798115 -0.0336,0.409464 -0.19041,0.644849 -0.90102,1.352312 -0.75312,0.749787 -0.91697,0.841898 -1.459,0.820235 -0.34304,-0.01371 -0.59139,-0.114392 -0.77864,-0.315665 -0.0702,-0.07544 -0.15721,-0.137157 -0.19339,-0.137157 -0.0362,0 -0.0741,-0.01804 -0.0842,-0.04011 -0.0102,-0.02206 -0.10618,-0.121821 -0.21347,-0.221689 l -0.19509,-0.181578 -0.41324,0.20737 c -0.22727,0.114053 -0.43112,0.210805 -0.45296,0.215003 -0.0218,0.0042 -0.0516,0.01365 -0.0662,0.02101 -0.0145,0.0073 -0.0444,0.01845 -0.0662,0.02467 -0.0218,0.0063 -0.0796,0.02913 -0.12828,0.05091 -0.0487,0.0218 -0.1202,0.04615 -0.15888,0.05415 -0.0387,0.0081 -0.11019,0.03206 -0.15888,0.05349 -0.0487,0.02142 -0.13211,0.04727 -0.18536,0.05748 -0.0533,0.01019 -0.10278,0.02337 -0.11007,0.02931 -0.007,0.0059 -0.0359,0.01378 -0.0635,0.01746 -0.1113,0.01479 -0.16123,0.132558 -0.18499,0.436465 -0.0138,0.175428 -0.0381,0.379126 -0.0543,0.452663 -0.0161,0.07354 -0.0422,0.204919 -0.058,0.29196 -0.0158,0.08705 -0.0542,0.189326 -0.0854,0.227296 -0.0312,0.03797 -0.037,0.06904 -0.0128,0.06904 0.0241,0 -0.0613,0.108301 -0.18991,0.240667 -0.12866,0.132367 -0.26177,0.240667 -0.29583,0.240667 -0.034,0 -0.0914,0.03583 -0.12738,0.07963 -0.0361,0.04379 -0.0849,0.06748 -0.10876,0.05261 -0.0238,-0.01486 -0.0578,-0.0033 -0.0756,0.02584 -0.0453,0.07414 -1.91742,0.05824 -2.11991,-0.01802 z m 1.99778,-6.411189 c 0.0501,-0.01032 0.10772,-0.03549 0.12799,-0.05595 0.0203,-0.02046 0.0877,-0.0372 0.14982,-0.0372 0.0621,0 0.13614,-0.02337 0.16444,-0.05194 0.0283,-0.02858 0.10403,-0.06005 0.16832,-0.06997 0.0642,-0.0099 0.21486,-0.0828 0.33463,-0.161975 0.11976,-0.07917 0.23737,-0.143962 0.26138,-0.143962 0.0732,0 1.00656,-0.972104 0.97804,-1.018691 -0.0146,-0.02396 -0.002,-0.05895 0.0283,-0.07777 0.0681,-0.04253 0.33208,-0.561466 0.28556,-0.561466 -0.0186,0 -0.007,-0.03197 0.0246,-0.07105 0.0322,-0.03908 0.069,-0.129328 0.082,-0.200558 0.013,-0.0712 0.0272,-0.1295 0.0316,-0.1295 0.0784,0 0.11564,-1.27437 0.0462,-1.57771 -0.0304,-0.13236 -0.0633,-0.28122 -0.0735,-0.33078 -0.0101,-0.0496 -0.0447,-0.13982 -0.0768,-0.20056 -0.0322,-0.0607 -0.042,-0.11043 -0.022,-0.11043 0.0201,0 5.9e-4,-0.0421 -0.043,-0.0936 -0.07,-0.0824 -0.16361,-0.28192 -0.15093,-0.32197 0.004,-0.008 -0.0554,-0.0799 -0.12899,-0.1599 -0.0735,-0.08 -0.13355,-0.16553 -0.13355,-0.19008 0,-0.0763 -0.5947,-0.67846 -0.6701,-0.67846 -0.0393,0 -0.0714,-0.0213 -0.0714,-0.0474 0,-0.0261 -0.0775,-0.0869 -0.17213,-0.13518 -0.0947,-0.0483 -0.20787,-0.11006 -0.25156,-0.13726 -0.11013,-0.0686 -0.45363,-0.22017 -0.53874,-0.23777 -0.0386,-0.008 -0.10607,-0.0295 -0.14976,-0.0477 -0.0437,-0.0183 -0.13903,-0.0405 -0.21185,-0.0496 -0.0729,-0.009 -0.15624,-0.0304 -0.18535,-0.0476 -0.0291,-0.0172 -0.26747,-0.0253 -0.52963,-0.018 -0.44049,0.0122 -0.56562,0.0271 -0.92498,0.10988 -0.14598,0.0336 -0.56818,0.21201 -0.69034,0.29163 -0.0437,0.0285 -0.12808,0.0733 -0.18753,0.0996 -0.0594,0.0263 -0.13983,0.0864 -0.17862,0.13358 -0.0387,0.0472 -0.0991,0.0858 -0.13416,0.0858 -0.0743,0 -0.72672,0.66842 -0.68937,0.70615 0.0139,0.014 -0.0226,0.0691 -0.0811,0.12252 -0.0584,0.0534 -0.10625,0.12652 -0.10625,0.16248 0,0.036 -0.0363,0.0958 -0.0807,0.13303 -0.0444,0.0372 -0.0681,0.0803 -0.0528,0.0958 0.0153,0.0155 -0.0117,0.0722 -0.06,0.12608 -0.0484,0.0539 -0.0692,0.0979 -0.0466,0.0979 0.0226,0 0.0157,0.0311 -0.0157,0.069 -0.0312,0.038 -0.0709,0.15027 -0.0882,0.24954 -0.0172,0.0993 -0.0433,0.19976 -0.0577,0.22331 -0.0702,0.11476 -0.10253,0.9206 -0.0545,1.36126 0.0221,0.20204 0.23872,0.879583 0.31075,0.971483 0.0287,0.03678 0.0366,0.06685 0.0172,0.06685 -0.0193,0 0.0242,0.06455 0.0966,0.143441 0.0725,0.07889 0.12179,0.159627 0.10969,0.179411 -0.0121,0.01978 0.0361,0.0911 0.10713,0.15848 0.071,0.06738 0.11654,0.14308 0.10117,0.16822 -0.0154,0.02514 0.0131,0.04572 0.0634,0.04572 0.0502,0 0.0771,0.01444 0.0596,0.03209 -0.0362,0.03661 0.30395,0.395762 0.37488,0.395762 0.0256,0 0.0896,0.04813 0.14236,0.106963 0.0527,0.05884 0.12424,0.106964 0.15889,0.106964 0.0347,0 0.10616,0.04813 0.15888,0.106961 0.0527,0.05884 0.11732,0.106964 0.14353,0.106964 0.0262,0 0.15024,0.0472 0.27563,0.104875 0.12539,0.05768 0.29687,0.118389 0.38107,0.134903 0.0842,0.01652 0.2365,0.04983 0.33844,0.07403 0.17179,0.04077 1.12828,0.03595 1.33575,-0.0067 z m 16.48576,-3.470752 c -0.0874,-0.0325 -0.19652,-0.0921 -0.2425,-0.13242 -0.046,-0.0403 -0.10737,-0.0732 -0.13642,-0.0732 -0.029,0 -0.10877,-0.0602 -0.17718,-0.13371 -0.0684,-0.0735 -0.10235,-0.13407 -0.0754,-0.13452 0.027,-4.2e-4 0.0225,-0.0185 -0.01,-0.0401 -0.0654,-0.0437 -0.25051,-0.38692 -0.20866,-0.38692 0.0147,0 0.004,-0.0635 -0.0265,-0.141 -0.0292,-0.0776 -0.0658,-0.22797 -0.0813,-0.33426 -0.0156,-0.10629 -0.0402,-0.23517 -0.055,-0.28639 -0.0147,-0.0512 -0.0377,-0.15953 -0.051,-0.24067 -0.0133,-0.0811 -0.0401,-0.21973 -0.0597,-0.30798 -0.0195,-0.0883 -0.0317,-0.17618 -0.0272,-0.19542 0.0157,-0.065 -0.11975,-0.14173 -0.27951,-0.15836 -0.0874,-0.009 -0.18868,-0.0384 -0.22509,-0.0652 -0.0364,-0.0268 -0.0662,-0.035 -0.0662,-0.0183 0,0.0167 -0.13107,-0.0151 -0.29128,-0.0708 -0.16021,-0.0556 -0.29128,-0.0875 -0.29128,-0.0708 0,0.0167 -0.0317,0.004 -0.0704,-0.0286 -0.0387,-0.0324 -0.11617,-0.0678 -0.17213,-0.0786 -0.056,-0.0108 -0.17327,-0.0514 -0.26065,-0.0902 -0.0874,-0.0388 -0.1708,-0.0746 -0.18536,-0.0795 -0.0146,-0.005 -0.086,-0.0336 -0.1589,-0.0637 -0.0729,-0.0301 -0.16814,-0.0671 -0.21184,-0.0822 -0.0498,-0.0173 -0.25781,0.14451 -0.55747,0.43354 -0.54398,0.52474 -0.65148,0.61488 -0.90419,0.7582 -0.16265,0.0923 -0.43623,0.17196 -0.57735,0.1682 -0.39923,-0.0106 -0.70361,-0.15573 -1.09663,-0.52269 -0.10798,-0.10081 -0.21098,-0.18328 -0.22892,-0.18328 -0.0179,0 -0.14409,-0.10657 -0.28036,-0.23683 -0.13625,-0.13025 -0.34307,-0.30749 -0.45958,-0.39386 -0.11652,-0.0864 -0.26963,-0.22046 -0.34024,-0.29799 -0.0706,-0.0775 -0.16397,-0.14095 -0.20744,-0.14095 -0.0436,0 -0.065,-0.0141 -0.0481,-0.0313 0.017,-0.0172 -0.0206,-0.0914 -0.0839,-0.16473 -0.0631,-0.0734 -0.11687,-0.14953 -0.11931,-0.16924 -0.003,-0.0197 -0.0311,-0.10082 -0.0639,-0.18027 -0.10889,-0.26448 -0.0796,-0.83079 0.0511,-0.98985 0.0312,-0.038 0.0428,-0.069 0.026,-0.069 -0.0305,0 0.74116,-1.1789 0.80523,-1.23007 0.0709,-0.0567 0.0601,-0.2542 -0.0175,-0.31925 -0.0449,-0.0375 -0.0814,-0.0976 -0.0814,-0.1336 0,-0.0359 -0.0471,-0.10843 -0.10467,-0.16104 -0.0576,-0.0526 -0.0929,-0.11485 -0.0785,-0.1383 0.0144,-0.0234 0.002,-0.0577 -0.0277,-0.0762 -0.0428,-0.0267 -0.483,-0.88393 -0.50833,-0.98995 -0.004,-0.0147 -0.0361,-0.10496 -0.0725,-0.20056 -0.0633,-0.16654 -0.0785,-0.17406 -0.36536,-0.17973 -0.78418,-0.0155 -1.21543,-0.0382 -1.38505,-0.0729 -0.10197,-0.0209 -0.20921,-0.0429 -0.23833,-0.0489 -0.0291,-0.006 -0.15407,-0.0762 -0.27764,-0.15594 -0.23032,-0.14864 -0.47335,-0.47629 -0.51308,-0.69166 -0.0122,-0.0666 -0.0264,-0.12104 -0.0315,-0.12104 -0.0168,0 -0.047,-0.31485 -0.0746,-0.77548 -0.0149,-0.25003 -0.0405,-0.51476 -0.0568,-0.58829 -0.0615,-0.27753 -0.0731,-1.37808 -0.0165,-1.56413 0.10359,-0.34085 0.60932,-0.79714 0.95648,-0.86299 0.0657,-0.0125 0.1791,-0.0368 0.25191,-0.054 0.0729,-0.0173 0.19199,-0.0413 0.26481,-0.0535 0.0729,-0.0122 0.19198,-0.0362 0.2648,-0.0535 0.0729,-0.0173 0.19815,-0.0421 0.27851,-0.0552 0.2285,-0.0373 0.35645,-0.087 0.36366,-0.14132 0.004,-0.0274 0.0125,-0.098 0.0198,-0.15684 0.007,-0.0588 0.0181,-0.11298 0.0238,-0.12034 0.013,-0.0162 0.035,-0.11483 0.0794,-0.35649 0.0185,-0.10048 0.0501,-0.20878 0.0703,-0.24067 0.0201,-0.0319 0.039,-0.0941 0.0419,-0.1382 0.004,-0.0441 0.023,-0.12046 0.0447,-0.16964 0.0216,-0.0492 0.0458,-0.12138 0.0535,-0.16045 0.008,-0.0391 0.0318,-0.11126 0.0529,-0.16044 0.0212,-0.0492 0.0434,-0.12138 0.0492,-0.16044 0.006,-0.0391 0.0335,-0.10713 0.0613,-0.15125 0.0278,-0.0441 0.0514,-0.0923 0.0521,-0.10697 5.9e-4,-0.0147 0.0345,-0.10652 0.0748,-0.20404 0.0728,-0.17563 0.0711,-0.17967 -0.17402,-0.431 -0.13611,-0.13955 -0.23101,-0.27035 -0.21087,-0.29067 0.0201,-0.0203 0.007,-0.037 -0.0289,-0.037 -0.0851,0 -0.22161,-0.13784 -0.17905,-0.18081 0.0181,-0.0182 -0.008,-0.0331 -0.0586,-0.0331 -0.0502,0 -0.0766,-0.0241 -0.0587,-0.0535 0.018,-0.0294 -0.008,-0.0535 -0.0587,-0.0535 -0.0502,0 -0.0768,-0.0146 -0.0592,-0.0325 0.0177,-0.0179 -0.0274,-0.0961 -0.10025,-0.17382 -0.0729,-0.0777 -0.16854,-0.22556 -0.21271,-0.32851 -0.10565,-0.2463 -0.12852,-0.76625 -0.0412,-0.93623 0.0377,-0.0734 0.0587,-0.1334 0.0467,-0.1334 -0.0409,0 0.23747,-0.38588 0.46397,-0.6433 0.12434,-0.14133 0.26349,-0.30665 0.30922,-0.36739 0.0457,-0.0607 0.18408,-0.21917 0.30744,-0.35209 0.12337,-0.13291 0.20891,-0.24166 0.1901,-0.24166 -0.0187,0 0.10462,-0.14594 0.27429,-0.32432 0.29077,-0.3057 0.52123,-0.46223 0.743,-0.50467 0.0533,-0.0102 0.10275,-0.0234 0.11002,-0.0293 0.0501,-0.0408 0.39081,-0.0188 0.55132,0.0357 0.10659,0.0361 0.20406,0.0554 0.21659,0.0427 0.0125,-0.0126 0.066,0.0253 0.1189,0.0843 0.0529,0.059 0.12452,0.10729 0.15918,0.10729 0.0347,0 0.10617,0.0481 0.15889,0.10696 0.0526,0.0588 0.12422,0.10696 0.15888,0.10696 0.0347,0 0.10617,0.0481 0.15889,0.10697 0.0527,0.0588 0.11696,0.10696 0.14275,0.10696 0.0258,0 0.11836,0.0534 0.20568,0.11854 0.14161,0.10573 0.17144,0.11045 0.27592,0.0437 0.0644,-0.0412 0.18217,-0.10809 0.2617,-0.14866 0.0795,-0.0406 0.15799,-0.0957 0.17437,-0.12244 0.0164,-0.0268 0.11815,-0.0894 0.22614,-0.13913 0.108,-0.0497 0.24998,-0.13883 0.31552,-0.19794 0.0655,-0.0591 0.11917,-0.0883 0.11917,-0.0649 0,0.0234 0.0358,0.0127 0.0794,-0.024 0.0437,-0.0366 0.0794,-0.0479 0.0794,-0.025 0,0.0229 0.0487,-0.003 0.10847,-0.0576 0.0597,-0.0545 0.14493,-0.10452 0.18948,-0.11112 0.0446,-0.007 0.15663,-0.0481 0.24903,-0.0922 0.0924,-0.0442 0.23035,-0.0959 0.30654,-0.11508 0.1342,-0.0338 0.13884,-0.0485 0.1484,-0.47209 0.0146,-0.64758 0.0666,-1.24824 0.11285,-1.3063 0.006,-0.007 0.0137,-0.0314 0.0173,-0.0535 0.0238,-0.14259 0.26923,-0.45276 0.46441,-0.58702 0.24162,-0.16619 0.42638,-0.22202 0.86617,-0.26174 0.14564,-0.0132 0.37205,-0.0348 0.50313,-0.048 1.23623,-0.12492 1.88317,-0.12825 2.12663,-0.011 0.36844,0.17753 0.68309,0.61521 0.76025,1.05752 0.0169,0.0965 0.0425,0.19479 0.0569,0.21843 0.0145,0.0237 0.0377,0.15438 0.0515,0.29051 0.0138,0.13614 0.0443,0.2873 0.0677,0.33589 0.0233,0.0486 0.0393,0.12446 0.0355,0.16858 -0.0109,0.13027 0.082,0.21392 0.2379,0.21392 0.0802,0 0.24406,0.035 0.36424,0.0778 0.12019,0.0428 0.21851,0.0639 0.21851,0.0469 0,-0.017 0.0298,-0.007 0.0662,0.0216 0.0364,0.0289 0.1377,0.0662 0.22508,0.0829 0.0874,0.0167 0.23039,0.0599 0.31777,0.0959 0.0874,0.0361 0.19632,0.0731 0.24209,0.0823 0.0458,0.009 0.153,0.0535 0.23832,0.0985 0.0853,0.0449 0.17536,0.0818 0.20008,0.082 0.0247,1.7e-4 0.12637,0.0393 0.22587,0.087 l 0.18089,0.0867 0.47815,-0.47442 c 0.6106,-0.60583 0.85413,-0.74034 1.33309,-0.73628 0.47679,0.004 0.75222,0.15845 1.43082,0.80221 0.16731,0.15873 0.32335,0.28861 0.34673,0.28861 0.0234,0 0.1356,0.0963 0.24937,0.21393 0.11377,0.11766 0.229,0.21392 0.25605,0.21392 0.0272,0 0.15642,0.1083 0.2875,0.24067 0.13108,0.13236 0.21958,0.24066 0.19668,0.24066 -0.0229,0 0.004,0.0507 0.0592,0.11258 0.0554,0.0619 0.0931,0.12249 0.0836,0.1346 -0.009,0.0121 8e-4,0.0998 0.0236,0.19494 0.0615,0.26103 0.0589,0.36779 -0.0141,0.58741 -0.0368,0.11029 -0.0523,0.20055 -0.0345,0.20055 0.0177,0 -0.006,0.0421 -0.0515,0.0936 -0.0462,0.0515 -0.0848,0.11218 -0.0861,0.1349 -0.003,0.046 -0.12715,0.23239 -0.31458,0.47011 -0.0681,0.0864 -0.10567,0.1571 -0.0834,0.1571 0.0222,0 -0.007,0.0542 -0.0651,0.12033 -0.20832,0.23789 -0.28161,0.39532 -0.21522,0.46235 0.14395,0.14537 0.73254,1.26457 0.68845,1.3091 -0.0183,0.0185 -0.007,0.0336 0.0245,0.0336 0.0317,0 0.0859,0.0866 0.12055,0.19235 0.0346,0.1058 0.0948,0.25449 0.1338,0.33042 0.0389,0.0759 0.0589,0.15785 0.044,0.18202 -0.0148,0.0241 0.005,0.0462 0.0425,0.0489 0.0381,0.003 0.23617,0.0135 0.44005,0.024 1.17539,0.0603 1.31856,0.0801 1.45936,0.20185 0.0573,0.0496 0.1231,0.0901 0.14619,0.0901 0.0722,0 0.38427,0.35274 0.34614,0.39126 -0.0199,0.0201 -0.0102,0.0366 0.0215,0.0366 0.0814,0 0.1871,0.35214 0.20071,0.66851 0.006,0.14708 0.0264,0.35909 0.0445,0.47114 0.0431,0.26641 0.0999,1.14102 0.10476,1.61464 0.005,0.4215 -0.0237,0.58753 -0.11529,0.67994 -0.0346,0.0349 -0.0629,0.0898 -0.0629,0.12213 0,0.14171 -0.52341,0.54093 -0.77021,0.58746 -0.057,0.0108 -0.10366,0.0234 -0.10366,0.028 0,0.005 -0.0715,0.0199 -0.15888,0.0338 -0.24043,0.0383 -0.37073,0.064 -0.37073,0.0729 0,0.004 -0.0476,0.0169 -0.10593,0.0276 -0.13105,0.0242 -0.46266,0.0939 -0.51637,0.10852 -0.0218,0.006 -0.0733,0.0139 -0.11448,0.0175 -0.0412,0.004 -0.0684,0.0488 -0.0606,0.10028 0.008,0.0515 -0.0171,0.18384 -0.0552,0.29414 -0.0382,0.11031 -0.0597,0.20056 -0.0476,0.20056 0.0119,0 -0.012,0.0963 -0.0529,0.21392 -0.0411,0.11767 -0.0633,0.21393 -0.0493,0.21393 0.0139,0 -0.0115,0.0722 -0.0566,0.16045 -0.0451,0.0882 -0.0667,0.16044 -0.0478,0.16044 0.0188,0 0.008,0.032 -0.0241,0.071 -0.0322,0.0391 -0.0664,0.1173 -0.0761,0.17382 -0.0168,0.0974 -0.19994,0.54 -0.29884,0.72198 -0.0352,0.0648 0.0788,0.21142 0.49174,0.63206 0.6639,0.67628 0.78912,0.90383 0.78304,1.4228 -0.004,0.32964 -0.0217,0.42363 -0.0976,0.51604 -0.0326,0.0397 -0.0593,0.0922 -0.0591,0.11664 1e-4,0.0244 -0.074,0.1267 -0.16468,0.2273 -0.0906,0.10059 -0.15102,0.1829 -0.13414,0.1829 0.0169,0 -0.0703,0.10875 -0.19362,0.24167 -0.12336,0.13291 -0.26171,0.29307 -0.30744,0.35591 -0.0458,0.0628 -0.1962,0.23903 -0.33436,0.39154 -0.13818,0.15252 -0.2355,0.29319 -0.21626,0.31261 0.0192,0.0194 -0.006,0.0353 -0.0565,0.0353 -0.0502,0 -0.0766,0.0241 -0.0587,0.0535 0.018,0.0294 -0.005,0.0535 -0.0499,0.0535 -0.0454,0 -0.0766,0.0281 -0.0693,0.0625 0.007,0.0344 -0.0402,0.0906 -0.10555,0.12508 -0.0654,0.0344 -0.16255,0.10258 -0.21602,0.15145 -0.0535,0.0489 -0.14756,0.0888 -0.20907,0.0888 -0.0616,0 -0.12373,0.0194 -0.13823,0.043 -0.0213,0.0348 -0.536,0.0468 -0.536,0.0124 0,-0.005 -0.0494,-0.0194 -0.10967,-0.0309 -0.17665,-0.0338 -0.80413,-0.40865 -0.88254,-0.52727 -0.0214,-0.0324 -0.0393,-0.0387 -0.0398,-0.014 -3.7e-4,0.0247 -0.0675,-0.0114 -0.14893,-0.0802 -0.0815,-0.0688 -0.23341,-0.17107 -0.33769,-0.22727 l -0.18956,-0.10219 -0.25812,0.16595 c -0.32633,0.20979 -1.48589,0.79636 -1.66161,0.84052 -0.30732,0.0772 -0.31705,0.10605 -0.33714,0.99761 -0.0154,0.6823 -0.0369,0.86589 -0.12459,1.06345 -0.21456,0.48324 -0.66021,0.78614 -1.22541,0.83288 -0.1644,0.0136 -0.41807,0.0376 -0.56372,0.0533 -0.96433,0.10414 -1.83404,0.13279 -2.01253,0.0663 z m 1.21811,-7.90533 c 0,-0.006 0.0715,-0.0203 0.15888,-0.0318 0.17152,-0.0225 0.36263,-0.062 0.38398,-0.0794 0.007,-0.006 0.0311,-0.0147 0.0529,-0.0195 0.35198,-0.0774 1.17186,-0.45612 1.28482,-0.59357 0.036,-0.0438 0.0928,-0.0796 0.1263,-0.0796 0.0722,0 0.86297,-0.81235 1.01513,-1.04289 0.26871,-0.40708 0.55357,-1.06977 0.63418,-1.47531 0.0141,-0.071 0.0407,-0.20133 0.0591,-0.28957 0.122,-0.58543 -0.0149,-1.87071 -0.23927,-2.24622 -0.0176,-0.0294 -0.0337,-0.0655 -0.036,-0.0802 -0.0138,-0.091 -0.20103,-0.46632 -0.27263,-0.54623 -0.0471,-0.0526 -0.0691,-0.0956 -0.0489,-0.0956 0.0202,0 -0.0139,-0.0542 -0.0757,-0.12033 -0.0618,-0.0662 -0.14375,-0.18051 -0.18197,-0.25404 -0.10949,-0.2107 -0.94946,-0.96267 -1.07534,-0.96267 -0.0283,0 -0.082,-0.0373 -0.11944,-0.0829 -0.069,-0.0839 -0.39102,-0.24583 -0.63336,-0.31841 -0.0729,-0.0218 -0.15623,-0.0577 -0.18536,-0.0796 -0.0291,-0.022 -0.14829,-0.059 -0.26481,-0.0823 -0.11651,-0.0233 -0.2476,-0.0524 -0.29129,-0.0648 -0.17143,-0.0486 -1.34924,-0.0501 -1.55557,-0.002 -0.12024,0.028 -0.27748,0.0624 -0.34939,0.0762 -0.0718,0.0139 -0.16587,0.0539 -0.20877,0.089 -0.0506,0.0414 -0.0655,0.0427 -0.0426,0.004 0.0196,-0.0329 -0.13675,0.026 -0.34731,0.13099 -0.21056,0.10499 -0.39734,0.19211 -0.41506,0.19361 -0.0177,0.001 -0.16765,0.10499 -0.33318,0.23 -0.16555,0.12502 -0.32525,0.2273 -0.35489,0.2273 -0.0296,0 -0.0391,0.0241 -0.0211,0.0535 0.018,0.0294 -0.006,0.0535 -0.0529,0.0535 -0.0471,0 -0.0709,0.0241 -0.0529,0.0535 0.018,0.0294 -0.006,0.0535 -0.0529,0.0535 -0.0471,0 -0.071,0.0241 -0.0529,0.0535 0.018,0.0294 -0.006,0.0535 -0.0529,0.0535 -0.0471,0 -0.071,0.0241 -0.0529,0.0535 0.018,0.0294 -0.006,0.0535 -0.0529,0.0535 -0.0471,0 -0.0727,0.0213 -0.0566,0.0474 0.0159,0.0261 -0.007,0.0777 -0.0514,0.1147 -0.17491,0.1466 -0.77074,1.17491 -0.68076,1.17491 0.0186,0 0.008,0.0311 -0.023,0.069 -0.0543,0.066 -0.14043,0.38499 -0.21257,0.78666 -0.04,0.22266 -0.0381,1.17554 0.003,1.45115 0.0359,0.24143 0.24928,0.90545 0.31996,0.99563 0.0287,0.0368 0.0347,0.0668 0.013,0.0668 -0.0217,0 -0.01,0.0363 0.027,0.0808 0.0365,0.0444 0.11688,0.17498 0.17861,0.29014 0.0617,0.11515 0.19026,0.2954 0.28564,0.40056 0.0954,0.10516 0.15585,0.1912 0.13439,0.1912 -0.0621,0 0.47547,0.53924 0.59254,0.59428 0.0582,0.0274 0.20126,0.12175 0.31777,0.20971 0.23456,0.17707 0.63133,0.38255 0.79329,0.41084 0.0577,0.0101 0.12795,0.0417 0.15624,0.0703 0.0284,0.0286 0.10228,0.052 0.16442,0.052 0.0621,0 0.12956,0.0168 0.14983,0.0372 0.0203,0.0205 0.0705,0.0422 0.1116,0.0483 0.0412,0.006 0.17531,0.0253 0.29819,0.0426 0.12291,0.0174 0.23029,0.0384 0.23861,0.0469 0.0169,0.0171 0.94774,0.004 0.94774,-0.0129 z m -25.2149,-1.98909 c -0.0151,-0.0247 -0.0819,-0.0449 -0.14851,-0.0449 -0.0666,0 -0.16422,-0.0481 -0.21694,-0.10697 -0.0527,-0.0588 -0.11769,-0.10696 -0.14438,-0.10696 -0.0735,0 -0.37628,-0.37882 -0.38467,-0.48133 -8e-4,-0.0147 -0.0187,-0.0528 -0.0388,-0.0847 -0.0201,-0.0319 -0.0482,-0.12816 -0.0623,-0.21393 -0.0548,-0.3321 -0.0959,-0.64604 -0.11152,-0.8512 -0.009,-0.11766 -0.0305,-0.29816 -0.0478,-0.40111 -0.0174,-0.10295 -0.0418,-0.33988 -0.0543,-0.52651 -0.0147,-0.22048 -0.0548,-0.37514 -0.1143,-0.44156 -0.0503,-0.0562 -0.10185,-0.0919 -0.11436,-0.0792 -0.0202,0.0204 -0.32694,-0.0728 -0.54282,-0.165 -0.0437,-0.0187 -0.11108,-0.0405 -0.14975,-0.0485 -0.0387,-0.008 -0.15784,-0.0576 -0.26481,-0.11023 -0.10696,-0.0526 -0.21236,-0.0996 -0.23421,-0.1044 -0.0218,-0.005 -0.0516,-0.0147 -0.0662,-0.0221 -0.0145,-0.007 -0.0444,-0.0169 -0.0662,-0.0212 -0.0218,-0.004 -0.29496,-0.13506 -0.60691,-0.2905 -0.61263,-0.30525 -0.63915,-0.30647 -0.88525,-0.0408 -0.0706,0.0762 -0.16139,0.13862 -0.20172,0.13862 -0.0403,0 -0.0586,0.0241 -0.0406,0.0535 0.018,0.0294 0.006,0.0535 -0.0275,0.0535 -0.0562,0 -0.24254,0.14519 -0.73808,0.57492 -0.11025,0.0956 -0.22366,0.17382 -0.25203,0.17382 -0.0284,0 -0.0914,0.0444 -0.14009,0.0987 -0.17667,0.19714 -0.94308,0.30103 -1.13277,0.15355 -0.0363,-0.0283 -0.0662,-0.0359 -0.0662,-0.017 0,0.10605 -0.42659,-0.28149 -1.5787,-1.43418 -1.3522,-1.3529 -1.49596,-1.54159 -1.50476,-1.97499 -0.0105,-0.51351 0.0911,-0.76306 0.48156,-1.18374 0.12196,-0.1314 0.22264,-0.25762 0.22372,-0.28049 8.1e-4,-0.0229 0.0725,-0.11979 0.15862,-0.2154 0.0861,-0.0956 0.14356,-0.17381 0.12758,-0.17381 -0.0255,0 0.18833,-0.25489 0.38776,-0.4621 0.0386,-0.04 0.0527,-0.0727 0.0314,-0.0727 -0.0211,0 -0.004,-0.0421 0.0393,-0.0936 0.0428,-0.0515 0.0743,-0.11765 0.0698,-0.14707 -0.0144,-0.0969 -0.0932,-0.26603 -0.16194,-0.34762 -0.0372,-0.0442 -0.0724,-0.1043 -0.0781,-0.13371 -0.0208,-0.10597 -0.0675,-0.21527 -0.12209,-0.28617 -0.0306,-0.0397 -0.0604,-0.0999 -0.0664,-0.1337 -0.006,-0.0338 -0.0532,-0.15773 -0.10504,-0.27539 -0.0519,-0.11766 -0.0978,-0.22596 -0.10198,-0.24067 -0.008,-0.0272 -0.10709,-0.28124 -0.16722,-0.42785 -0.0181,-0.0442 -0.0394,-0.11218 -0.0474,-0.15125 -0.008,-0.0391 -0.0317,-0.11127 -0.053,-0.16044 -0.0211,-0.0492 -0.0476,-0.13704 -0.0585,-0.19523 -0.034,-0.17955 -0.11592,-0.21343 -0.65256,-0.26993 -0.13107,-0.0138 -0.34556,-0.0372 -0.47664,-0.052 -0.22205,-0.0251 -0.6449,-0.0714 -0.95332,-0.10431 -0.0729,-0.008 -0.17224,-0.0315 -0.22094,-0.0527 -0.0487,-0.0212 -0.12021,-0.0438 -0.15889,-0.0502 -0.19885,-0.0331 -0.61935,-0.43861 -0.68755,-0.66301 -0.006,-0.0215 -0.0428,-0.0992 -0.0807,-0.17275 -0.0529,-0.1028 -0.0682,-0.57867 -0.0659,-2.05877 0.004,-1.68089 0.0137,-1.93696 0.087,-2.01892 0.0462,-0.0516 0.0649,-0.0939 0.0411,-0.0939 -0.0236,0 2.4e-4,-0.0481 0.0529,-0.10697 0.0527,-0.0588 0.0792,-0.10696 0.0588,-0.10696 -0.0533,0 0.17805,-0.22364 0.36494,-0.35283 0.17798,-0.12305 0.60749,-0.23471 1.00626,-0.26161 0.14564,-0.01 0.26481,-0.022 0.26481,-0.027 0,-0.0128 0.37534,-0.0529 0.66326,-0.071 0.13177,-0.008 0.26284,-0.0287 0.29129,-0.0455 0.0284,-0.0167 0.0924,-0.0239 0.14208,-0.0157 0.10932,0.0178 0.19064,-0.0724 0.22242,-0.24671 0.013,-0.0712 0.0285,-0.13553 0.0342,-0.14288 0.006,-0.007 0.0165,-0.0374 0.0237,-0.0668 0.007,-0.0294 0.0181,-0.0595 0.0238,-0.0669 0.006,-0.007 0.0185,-0.054 0.0279,-0.10378 0.0336,-0.17535 0.14795,-0.49869 0.19985,-0.56474 0.0289,-0.0368 0.0349,-0.0668 0.0131,-0.0668 -0.0217,0 -0.0132,-0.032 0.0188,-0.0711 0.0322,-0.0391 0.0659,-0.12097 0.0752,-0.18197 0.009,-0.061 0.0484,-0.14937 0.087,-0.19636 0.0387,-0.047 0.0568,-0.0854 0.0406,-0.0854 -0.0162,0 0.0881,-0.23403 0.23184,-0.52008 0.14379,-0.28604 0.26144,-0.52725 0.26144,-0.53601 0,-0.009 -0.0984,-0.12369 -0.21859,-0.2554 -0.12023,-0.13171 -0.20271,-0.23947 -0.18331,-0.23947 0.0195,0 -0.0162,-0.0541 -0.0792,-0.12033 -0.0629,-0.0662 -0.18475,-0.21661 -0.27067,-0.33426 -0.0859,-0.11766 -0.23888,-0.30418 -0.33991,-0.41449 -0.10105,-0.1103 -0.16715,-0.20055 -0.14689,-0.20055 0.0203,0 8e-4,-0.0421 -0.0428,-0.0936 -0.1371,-0.16122 -0.21637,-0.41578 -0.21232,-0.68189 0.005,-0.29393 0.0418,-0.49725 0.10556,-0.57483 0.0348,-0.0422 0.0518,-0.0881 0.0382,-0.10198 -0.0138,-0.0138 0.0561,-0.1119 0.15501,-0.21785 0.099,-0.10596 0.16601,-0.20673 0.14898,-0.22393 -0.017,-0.0172 -0.002,-0.0312 0.0346,-0.0312 0.0851,0 0.2216,-0.13785 0.17905,-0.18082 -0.0181,-0.0183 -0.004,-0.0331 0.0328,-0.0331 0.0851,0 0.22162,-0.13785 0.17905,-0.18082 -0.0181,-0.0182 -0.004,-0.0331 0.0328,-0.0331 0.0851,0 0.22163,-0.13784 0.17907,-0.18081 -0.0181,-0.0183 -0.004,-0.0331 0.0328,-0.0331 0.0851,0 0.22162,-0.13785 0.17907,-0.18082 -0.0181,-0.0182 -0.004,-0.0331 0.0328,-0.0331 0.0851,0 0.22162,-0.13784 0.17905,-0.18082 -0.0181,-0.0182 -0.004,-0.0331 0.0328,-0.0331 0.0851,0 0.22162,-0.13785 0.17907,-0.18082 -0.0181,-0.0183 -0.004,-0.0331 0.0328,-0.0331 0.0851,0 0.22161,-0.13785 0.17906,-0.18082 -0.0181,-0.0182 -0.004,-0.0331 0.0328,-0.0331 0.0851,0 0.22162,-0.13784 0.17907,-0.18082 -0.0181,-0.0182 -0.004,-0.0331 0.0328,-0.0331 0.0851,0 0.2216,-0.13784 0.17906,-0.18082 -0.0181,-0.0182 -0.004,-0.0331 0.0328,-0.0331 0.0851,0 0.22161,-0.13784 0.17905,-0.18081 -0.0181,-0.0183 0.005,-0.0331 0.0489,-0.0331 0.0451,0 0.11182,-0.0366 0.14853,-0.0812 0.12832,-0.15615 0.43299,-0.25914 0.76663,-0.25914 0.48901,0 0.71564,0.12151 1.50765,0.80831 0.11025,0.0956 0.2214,0.17398 0.24699,0.17419 0.0256,2.1e-4 0.14187,0.0953 0.25838,0.2113 0.22408,0.2231 0.39401,0.26874 0.50368,0.1353 0.0621,-0.0757 0.68996,-0.40301 0.77959,-0.4065 0.0224,-6e-4 0.0825,-0.0397 0.13345,-0.0863 0.051,-0.0465 0.0927,-0.066 0.0927,-0.0431 0,0.0229 0.0358,0.0116 0.0794,-0.025 0.0437,-0.0366 0.0794,-0.052 0.0794,-0.0342 0,0.0178 0.0775,-0.0115 0.17213,-0.0652 0.0947,-0.0537 0.26745,-0.12858 0.38396,-0.1665 0.11651,-0.0379 0.24165,-0.0928 0.27806,-0.12201 0.0364,-0.0292 0.0662,-0.0394 0.0662,-0.0226 0,0.0167 0.13108,-0.0151 0.29129,-0.0708 0.16021,-0.0556 0.29128,-0.0856 0.29128,-0.0666 0,0.0722 0.12667,-0.0971 0.13981,-0.18686 0.0552,-0.37754 0.083,-0.61154 0.0999,-0.84487 0.0108,-0.14817 0.0352,-0.35274 0.0544,-0.45459 0.0191,-0.101864 0.0419,-0.285864 0.0503,-0.408904 0.008,-0.12304 0.0353,-0.2554 0.0598,-0.29415 0.0244,-0.0387 0.0451,-0.0825 0.0464,-0.0972 0.005,-0.0512 0.21175,-0.34832 0.31753,-0.45459 0.0585,-0.0588 0.20864,-0.16048 0.33352,-0.22589 0.22208,-0.11632 0.26784,-0.11892 2.09316,-0.11892 2.0114,0 2.15308,0.0161 2.42061,0.27423 0.0859,0.0829 0.18173,0.1508 0.21283,0.1508 0.0311,0 0.0419,0.0241 0.0238,0.0535 -0.018,0.0295 -0.0116,0.0535 0.0144,0.0535 0.0954,0 0.2914,0.48586 0.30212,0.74874 0.005,0.10295 0.0285,0.319554 0.0542,0.481334 0.0256,0.16178 0.0497,0.35431 0.0536,0.42785 0.0169,0.31977 0.0961,0.78086 0.14477,0.84234 0.0291,0.0368 0.10559,0.0668 0.17,0.0668 0.0644,0 0.13497,0.018 0.15681,0.0401 0.0218,0.022 0.0556,0.0407 0.075,0.0414 0.10343,0.004 0.54521,0.1537 0.56943,0.19323 0.0156,0.0254 0.0738,0.0461 0.12943,0.0461 0.0556,0 0.18549,0.0478 0.28854,0.10628 0.10304,0.0584 0.19315,0.10488 0.20021,0.10319 0.007,-0.002 0.0843,0.0267 0.17174,0.0631 0.0874,0.0364 0.1708,0.0702 0.18537,0.0751 0.15588,0.0528 0.31422,0.13811 0.34276,0.18476 0.0194,0.0317 0.0548,0.0455 0.0785,0.0306 0.0238,-0.0149 0.0747,0.0113 0.11333,0.0582 0.10095,0.12283 0.50908,0.28557 0.44223,0.17634 -0.0165,-0.0268 0.002,-0.049 0.0395,-0.0494 0.0381,-3.2e-4 0.16504,-0.0906 0.28203,-0.20056 0.2688,-0.25272 0.64175,-0.5468 0.69778,-0.55023 0.0235,-0.002 0.13814,-0.0975 0.25467,-0.21355 0.11652,-0.116 0.24163,-0.21108 0.27804,-0.2113 0.11886,-6e-4 0.14474,-0.009 0.21339,-0.0662 0.11494,-0.0963 0.60183,-0.0852 0.88483,0.0203 0.22382,0.0834 0.46081,0.29615 1.5548,1.39567 1.38185,1.38885 1.49853,1.54611 1.51763,2.04543 0.0125,0.3262 -0.1295,0.73813 -0.3257,0.94492 -0.0794,0.0836 -0.12189,0.15239 -0.0946,0.15285 0.0273,3.8e-4 0.0245,0.0185 -0.006,0.0401 -0.0308,0.0216 -0.22009,0.24385 -0.42065,0.49388 -0.20056,0.25003 -0.38985,0.47227 -0.42065,0.49388 -0.0308,0.0216 -0.0352,0.0397 -0.01,0.0401 0.0254,3.9e-4 0.0145,0.0393 -0.0241,0.0864 -0.0893,0.10858 -0.10699,0.22552 -0.0405,0.267 0.0482,0.03 0.12535,0.19445 0.14833,0.3159 0.006,0.0294 0.0405,0.0896 0.0778,0.1337 0.0647,0.0767 0.11099,0.17869 0.1337,0.29415 0.006,0.0294 0.0428,0.0896 0.0824,0.13371 0.0396,0.0442 0.072,0.0988 0.0723,0.12159 2.6e-4,0.0228 0.0504,0.17919 0.11152,0.34763 0.12352,0.34056 0.14446,0.40103 0.15232,0.43996 0.004,0.0147 0.0635,0.1993 0.13454,0.41021 0.071,0.2109 0.11534,0.39742 0.0985,0.41448 -0.0169,0.017 0.0329,0.034 0.11051,0.0377 0.22856,0.0108 0.45799,0.0326 0.47225,0.0447 0.007,0.006 0.0967,0.0197 0.19859,0.0299 0.10196,0.0102 0.29262,0.0318 0.42371,0.0481 0.13107,0.0162 0.34556,0.0427 0.47664,0.0589 0.38502,0.0475 0.67345,0.13731 0.78849,0.24553 0.0591,0.0556 0.12204,0.10107 0.13991,0.10107 0.0178,0 0.0681,0.0361 0.11191,0.0802 0.0437,0.0442 0.0649,0.0802 0.0471,0.0802 -0.0177,0 0.0127,0.0488 0.0678,0.10843 0.21587,0.23399 0.24069,0.47434 0.2452,2.37489 0.004,1.41358 -0.0112,1.84515 -0.0662,1.95207 -0.0388,0.0755 -0.0718,0.1493 -0.0731,0.16401 -0.0232,0.23648 -0.45182,0.64655 -0.75786,0.72498 -0.25933,0.0665 -0.52316,0.10517 -1.05924,0.15543 -0.11651,0.0109 -0.21184,0.0241 -0.21184,0.0293 0,0.005 -0.13108,0.02 -0.29129,0.033 -0.53211,0.0431 -0.54806,0.0487 -0.64547,0.22475 -0.0516,0.0933 -0.0839,0.16962 -0.0716,0.16962 0.0334,0 -0.13747,0.49803 -0.19722,0.57493 -0.0285,0.0367 -0.0365,0.0669 -0.0176,0.0669 0.0188,0 -0.004,0.072 -0.0476,0.15988 -0.0451,0.0879 -0.0781,0.16616 -0.0734,0.17382 0.0151,0.025 -0.21779,0.53809 -0.47979,1.05681 -0.19105,0.37824 -0.24117,0.52312 -0.19608,0.5669 0.14612,0.14197 0.40586,0.45061 0.40235,0.4781 -0.005,0.0325 0.22544,0.32329 0.5453,0.69083 0.10923,0.12552 0.1986,0.25187 0.1986,0.28079 0,0.0289 0.0478,0.0963 0.10626,0.14968 0.0584,0.0534 0.0965,0.10697 0.0845,0.11903 -0.012,0.0121 0.008,0.0795 0.0439,0.14991 0.10583,0.20599 0.0677,0.77415 -0.0702,1.04622 -0.16845,0.33236 -2.49639,2.68562 -2.81708,2.84774 -0.36297,0.18348 -0.82677,0.18878 -1.18157,0.0135 -0.15197,-0.0751 -0.33278,-0.19721 -0.40178,-0.27138 -0.069,-0.0742 -0.14535,-0.13487 -0.16966,-0.13487 -0.0392,0 -0.25211,-0.17304 -0.44407,-0.361 -0.0375,-0.0368 -0.0892,-0.0669 -0.11464,-0.0669 -0.0256,0 -0.12146,-0.0782 -0.21325,-0.17381 -0.0918,-0.0956 -0.24594,-0.21677 -0.34256,-0.26926 l -0.17565,-0.0954 -0.51587,0.26523 c -0.28375,0.14588 -0.49959,0.23696 -0.47965,0.2024 0.0199,-0.0346 -0.01,-0.0226 -0.0655,0.0266 -0.056,0.0492 -0.16755,0.10601 -0.24793,0.12626 -0.0804,0.0202 -0.15926,0.0582 -0.17525,0.0844 -0.0159,0.0262 -0.0825,0.0476 -0.1478,0.0476 -0.0652,0 -0.14185,0.0234 -0.17014,0.0519 -0.0283,0.0286 -0.0986,0.0611 -0.15623,0.0722 -0.0577,0.0111 -0.14464,0.0377 -0.19333,0.0591 -0.0487,0.0214 -0.12547,0.0444 -0.1706,0.0511 -0.0451,0.007 -0.0986,0.0289 -0.11889,0.0494 -0.0203,0.0205 -0.0895,0.0372 -0.15392,0.0372 -0.20482,0 -0.25448,0.13818 -0.31717,0.88245 -0.0149,0.17649 -0.038,0.38105 -0.0514,0.45459 -0.0134,0.0735 -0.0377,0.28502 -0.0539,0.46996 -0.0162,0.18494 -0.054,0.40154 -0.0842,0.48133 -0.0301,0.0798 -0.0514,0.14508 -0.0475,0.14508 0.005,0 -0.01,0.0481 -0.0302,0.10696 -0.0631,0.1802 -0.40651,0.50968 -0.65784,0.63122 -0.22935,0.11091 -0.30886,0.11548 -2.10738,0.12114 -1.02796,0.003 -1.88139,-0.0143 -1.89649,-0.039 z m 2.83871,-9.63713 c 0.0437,-0.01 0.17478,-0.0363 0.29129,-0.0595 0.11652,-0.0233 0.24164,-0.0662 0.27805,-0.0954 0.0363,-0.0292 0.0662,-0.0391 0.0662,-0.0222 0,0.0512 0.69672,-0.21217 0.90034,-0.34031 0.0437,-0.0275 0.17477,-0.0972 0.2913,-0.15482 0.1165,-0.0576 0.27633,-0.16638 0.35516,-0.24161 0.0788,-0.0752 0.16178,-0.13679 0.18432,-0.13679 0.0533,0 0.9699,-0.92098 0.9699,-0.97451 0,-0.0225 0.0486,-0.0972 0.10792,-0.16616 0.17023,-0.19771 0.58408,-0.99374 0.65816,-1.26599 0.005,-0.0147 0.0506,-0.17114 0.10376,-0.34763 0.0531,-0.1765 0.10221,-0.38106 0.10921,-0.45459 0.007,-0.0735 0.0305,-0.23912 0.0523,-0.36797 0.0452,-0.26808 0.0464,-0.98435 0.002,-1.18299 -0.0165,-0.0735 -0.0402,-0.22477 -0.0529,-0.33606 -0.0125,-0.1113 -0.0347,-0.22162 -0.049,-0.24517 -0.0144,-0.0236 -0.0402,-0.12299 -0.0573,-0.221 -0.0171,-0.098 -0.0473,-0.20428 -0.0669,-0.23616 -0.0197,-0.0319 -0.0407,-0.0899 -0.0466,-0.12901 -0.006,-0.0391 -0.0284,-0.11127 -0.05,-0.16045 -0.0216,-0.0492 -0.0434,-0.10145 -0.0484,-0.11615 -0.0481,-0.14038 -0.10866,-0.25608 -0.17516,-0.33426 -0.0438,-0.0515 -0.0603,-0.0936 -0.0368,-0.0936 0.0236,0 -2.6e-4,-0.0481 -0.0529,-0.10697 -0.0527,-0.0588 -0.0757,-0.10696 -0.0514,-0.10696 0.0246,0 -0.0218,-0.07 -0.10289,-0.15544 -0.0811,-0.0855 -0.14782,-0.17575 -0.14823,-0.20056 -0.004,-0.17578 -1.0287,-1.19804 -1.316,-1.31154 -0.0505,-0.02 -0.10699,-0.0608 -0.12528,-0.0907 -0.031,-0.0505 -0.87956,-0.48798 -0.94667,-0.48798 -0.0168,0 -0.0974,-0.0258 -0.17937,-0.0572 -0.082,-0.0315 -0.16102,-0.0584 -0.17557,-0.0599 -0.0146,-0.002 -0.0855,-0.0253 -0.15759,-0.053 -0.0721,-0.0277 -0.22248,-0.0632 -0.33416,-0.079 -0.11168,-0.0158 -0.23144,-0.0331 -0.26612,-0.0384 -0.0347,-0.005 -0.0965,-0.0308 -0.13743,-0.0565 -0.0553,-0.0349 -0.0629,-0.0277 -0.0295,0.0282 0.0352,0.059 0.0285,0.0625 -0.0315,0.016 -0.11476,-0.0888 -1.10644,-0.0537 -1.60218,0.0568 -0.0347,0.008 -0.16485,0.0326 -0.2893,0.0553 -0.12444,0.0227 -0.23905,0.0622 -0.25469,0.0877 -0.0157,0.0255 -0.0698,0.0464 -0.12035,0.0464 -0.1882,0 -1.27139,0.60244 -1.52819,0.84995 -0.0643,0.062 -0.14317,0.11271 -0.17524,0.11271 -0.0322,0 -0.0437,0.0241 -0.0256,0.0535 0.018,0.0295 -3.8e-4,0.0535 -0.0412,0.0535 -0.0407,0 -0.17447,0.1083 -0.29731,0.24067 -0.12287,0.13237 -0.20958,0.24067 -0.19271,0.24067 0.017,0 -0.0398,0.0782 -0.12571,0.17382 -0.18963,0.21076 -0.43822,0.57492 -0.39247,0.57492 0.0182,0 -0.004,0.0421 -0.0465,0.0936 -0.0713,0.0838 -0.15492,0.26321 -0.15585,0.33426 -2.2e-4,0.0147 -0.0381,0.0689 -0.0842,0.12034 -0.0462,0.0515 -0.0646,0.0936 -0.041,0.0936 0.0236,0 -2.6e-4,0.0481 -0.0529,0.10696 -0.0527,0.0589 -0.0815,0.10696 -0.064,0.10696 0.0175,0 -0.0121,0.1291 -0.0659,0.28688 -0.0538,0.15778 -0.11224,0.39243 -0.12995,0.52144 -0.0177,0.12902 -0.0512,0.3549 -0.0745,0.50198 -0.0666,0.42173 0.0139,1.56081 0.12291,1.7389 0.0118,0.0192 0.0353,0.11517 0.0526,0.21317 0.0171,0.098 0.0476,0.20428 0.0677,0.23616 0.0202,0.0319 0.039,0.07 0.0419,0.0847 0.008,0.0434 0.0839,0.22421 0.19997,0.48134 0.0599,0.13237 0.11041,0.2527 0.11251,0.26741 0.002,0.0147 0.11411,0.19521 0.24894,0.40111 0.23615,0.36061 1.19178,1.36378 1.29917,1.36378 0.0287,0 0.0955,0.0481 0.14818,0.10696 0.0527,0.0589 0.11646,0.10696 0.14166,0.10696 0.0252,0 0.14662,0.0643 0.26984,0.14281 0.12321,0.0786 0.22403,0.13538 0.22403,0.12628 0,-0.009 0.11917,0.0395 0.26481,0.10786 0.14564,0.0684 0.28864,0.12978 0.31777,0.13635 0.0291,0.007 0.19596,0.052 0.37073,0.10095 0.17477,0.049 0.46076,0.10218 0.63553,0.11827 0.17477,0.0161 0.32411,0.0347 0.33186,0.0414 0.0195,0.0169 1.07952,-0.0231 1.17754,-0.0443 z"
       id="path413" />
    <path
       style="fill:#000000;stroke-width:0.513053"
       d="m 365.82966,-45.361355 c -0.33242,-0.618609 -0.5322,-6.672387 -0.5322,-16.128091 v -15.13774 h -3.88959 c -4.71772,0 -5.8784,-0.51512 -5.8784,-2.60891 0,-1.35282 2.81179,-4.3967 22.21276,-24.046124 19.84549,-20.09965 22.38334,-22.49724 23.8132,-22.49724 1.40214,0 2.95664,1.36391 12.54633,11.00806 6.02025,6.05444 11.03594,11.00806 11.14597,11.00806 0.11001,0 0.20005,-0.59115 0.20005,-1.31366 0,-2.94217 0.63007,-3.29436 5.89358,-3.29436 6.65786,0 6.44494,-0.31736 6.44494,9.606174 v 7.99702 l 4.88401,4.95076 c 4.05321,4.10863 4.88399,5.22117 4.88399,6.54048 0,2.13895 -1.13317,2.64974 -5.87842,2.64974 h -3.88958 v 15.13774 c 0,9.455704 -0.19977,15.509482 -0.53219,16.128091 -2.72034,1.222492 -59.27824,-0.361478 -71.42445,0 z m 69.93381,-0.05167 c 0.95024,-0.506479 0.9944,-1.23343 0.9944,-16.364881 v -15.83486 l 4.70104,-0.14721 c 7.07573,-0.22158 7.10996,-0.64915 0.5752,-7.18324 l -5.2526,-5.25204 -0.14035,-8.44805 -0.14033,-8.448044 h -4.884 -4.884 l -0.15669,2.43201 c -0.0917,1.4231 -0.40563,2.43201 -0.75676,2.43201 -0.33002,0 -5.84486,-5.20536 -12.2552,-11.56747 -10.38547,-10.30734 -11.76745,-11.50761 -12.68607,-11.018 -1.14237,0.60888 -43.76555,43.631944 -44.47213,44.889364 -0.92776,1.65105 0.53636,2.27225 5.35549,2.27225 h 4.56401 v 15.76968 c 0,11.582642 0.1638,15.932816 0.61691,16.384094 19.07686,-1.100787 48.62053,0.637759 68.82108,0.08439 z"
       id="path245-2"
       sodipodi:nodetypes="cscssssssssscssscscccscsscccccsssssscscc" />
    <path
       style="fill:none;stroke:#000000;stroke-width:1px;stroke-linecap:butt;stroke-linejoin:miter;stroke-opacity:1;marker-start:url(#marker1816);marker-end:url(#marker1868)"
       d="m 407.50542,-101.03094 c 11.47922,-0.50859 13.17373,5.786534 13.46324,12.320864"
       id="path1812" />
    <path
       style="fill:none;stroke:#000000;stroke-width:1px;stroke-linecap:butt;stroke-linejoin:miter;stroke-opacity:1;marker-start:url(#marker1816-9);marker-end:url(#marker1868-3)"
       d="m 383.52689,-58.08582 c -10.76206,-4.026036 -9.85684,-10.482076 -7.56509,-16.608176"
       id="path1812-9" />
    <path
       style="fill:#000000;stroke-width:0.192533"
       d="m 430.36099,-112.93703 c -0.39104,-1.44444 -0.67785,-2.65939 -0.63736,-2.69988 0.0405,-0.0405 0.33968,0.0791 0.66487,0.26571 0.32518,0.18664 0.63005,0.29764 0.67748,0.24668 0.0474,-0.051 0.52012,-2.19932 1.05044,-4.77414 0.62723,-3.04538 0.88307,-4.65037 0.73206,-4.59241 -0.12768,0.049 -1.50905,0.6277 -3.06971,1.28601 -1.56067,0.65831 -2.86798,1.16538 -2.90514,1.12682 -0.0371,-0.0386 0.63258,-3.06846 1.4883,-6.7331 l 1.55585,-6.66298 2.36614,-1.1786 c 2.30296,-1.14713 2.36072,-1.16457 2.16353,-0.65327 -0.77635,2.01298 -3.82117,10.70424 -3.76849,10.75692 0.0359,0.0359 1.48847,-0.57151 3.22788,-1.34986 1.7394,-0.77835 3.18725,-1.35323 3.21744,-1.27751 0.0302,0.0757 -0.77661,2.98766 -1.7929,6.47097 -1.01628,3.48332 -1.97053,6.7544 -2.12055,7.26909 l -0.27277,0.93578 0.86233,-0.12932 c 0.47429,-0.0711 0.86234,-0.0777 0.86234,-0.0145 0,0.0631 -0.79231,1.04315 -1.76068,2.17779 -0.96837,1.13465 -1.77629,2.08394 -1.79538,2.10953 -0.0191,0.0256 -0.35464,-1.13528 -0.74568,-2.57972 z"
       id="path2121" />
    <path
       style="fill:#ffffff;stroke-width:0.35411"
       d="m 369.87599,-46.46435 c -1.38855,-0.109548 -1.70524,-0.266038 -1.83861,-0.908544 -0.60648,-2.921602 -0.90332,-9.150735 -0.90332,-18.956072 v -11.34184 l -3.27037,-0.0418 c -4.04324,-0.0517 -5.17447,-0.28805 -5.78443,-1.2085 -0.41266,-0.62271 -0.37662,-0.92315 0.26673,-2.22349 0.99578,-2.01264 41.45094,-42.714344 42.76658,-43.027204 1.2172,-0.28945 1.9858,0.3845 14.41187,12.63714 11.11165,10.95658 10.71649,10.71712 11.24988,6.81705 l 0.29012,-2.12132 3.85146,-0.10088 c 3.561,-0.0933 3.91418,-0.042 4.68304,0.68035 0.82328,0.77343 0.83158,0.85741 0.83158,8.416364 v 7.63514 l 3.37638,3.35178 c 6.46203,6.41493 7.13807,8.82822 2.47493,8.83492 -1.17645,0.002 -2.97427,0.1034 -3.99515,0.22602 l -1.85616,0.22295 -0.0335,11.88318 c -0.0185,6.535754 -0.21731,13.474176 -0.44194,15.418719 l -0.40842,3.535534 -1.94454,0.230199 c -2.01091,0.238058 -60.7487,0.27523 -63.7261,0.04033 z m 29.06045,-5.741283 c 0.35375,-0.189324 0.7393,-0.72716 0.85677,-1.19519 0.26155,-1.042106 1.29308,-1.356846 2.70288,-0.824706 0.97159,0.366734 1.15455,0.305399 2.19622,-0.736268 1.0516,-1.051605 1.10567,-1.217553 0.72513,-2.225717 -0.52709,-1.396409 -0.31418,-1.902068 1.16939,-2.777403 1.00293,-0.591742 1.20587,-0.917478 1.20587,-1.935589 0,-1.23594 -0.73413,-2.33527 -1.55949,-2.33527 -0.58808,0 -1.35952,-1.67005 -0.90205,-1.95278 0.60777,-0.37562 0.3596,-2.04688 -0.42852,-2.88579 -0.77218,-0.82195 -2.19909,-1.09728 -2.57068,-0.49602 -0.30865,0.49941 -2.31744,-0.39876 -2.31744,-1.03617 0,-0.90351 -0.75951,-1.40741 -2.12132,-1.40741 -1.3807,0 -2.12132,0.50504 -2.12132,1.44659 0,0.72765 -1.30168,1.10382 -2.78976,0.8062 -1.89736,-0.37947 -3.89917,1.63015 -2.86503,2.87622 0.24218,0.2918 0.3197,0.9284 0.18676,1.53367 -0.1736,0.79038 -0.47767,1.08487 -1.28737,1.24681 -1.03456,0.20692 -1.0575,0.25683 -0.95304,2.07328 0.0941,1.63677 0.2054,1.87521 0.92252,1.976863 1.01084,0.143289 1.80322,1.649769 1.19019,2.262802 -0.72372,0.72372 -0.45166,1.947036 0.63667,2.86281 1.00687,0.847224 2.22605,0.94257 2.6791,0.209523 0.36417,-0.589232 1.85531,0.469353 2.05292,1.457404 0.18777,0.938847 0.58981,1.176947 2.28322,1.352221 0.25585,0.02648 0.75462,-0.106755 1.10838,-0.29608 z m -13.77116,-5.27946 c 0,-0.513964 -3.47163,-2.862814 -3.96794,-2.684651 -0.67945,0.243906 -3.67179,-2.104222 -4.74157,-3.720772 -0.57869,-0.87445 -1.00635,-2.09405 -1.10903,-3.16271 -0.19908,-2.07183 0.19109,-5.05283 0.62615,-4.78395 0.3657,0.22601 0.81771,-2.45328 0.64873,-3.84528 -0.11609,-0.95629 -0.14421,-0.94057 -1.44422,0.8071 -1.30767,1.75797 -1.71911,2.79265 -0.91219,2.29394 0.29088,-0.17978 0.33262,-0.0548 0.14064,0.42108 -0.15014,0.37219 -0.35781,1.66802 -0.46149,2.87961 -0.35577,4.15758 1.10379,7.07872 4.75525,9.51707 1.15121,0.768749 2.03228,1.580196 1.95794,1.803221 -0.0883,0.264999 0.57729,0.449936 1.92112,0.533759 1.13095,0.07055 2.17561,0.15835 2.32145,0.19512 0.14584,0.03677 0.26516,-0.07733 0.26516,-0.253537 z m 33.49918,-5.068103 c 0.24307,-0.19522 0.44195,-0.79346 0.44195,-1.32942 0,-1.3732 1.55315,-2.01859 3.32015,-1.37964 1.45407,0.5258 2.1124,0.12497 3.2431,-1.97463 0.64836,-1.20392 0.64714,-1.22442 -0.12149,-2.04259 -0.67972,-0.72354 -0.72591,-0.96029 -0.37084,-1.90097 0.24485,-0.6487 0.80329,-1.22463 1.40916,-1.45332 1.28822,-0.48625 1.53825,-1.18855 1.14582,-3.21844 -0.28661,-1.48258 -0.42054,-1.65195 -1.38079,-1.74622 -1.52966,-0.15018 -2.45852,-1.79838 -1.76589,-3.13344 0.58139,-1.12064 0.32083,-1.76139 -1.25574,-3.08799 -1.26409,-1.06366 -1.66005,-1.12148 -2.69852,-0.39411 -1.20809,0.84618 -2.78968,0.34512 -3.17502,-1.00588 -0.29117,-1.02087 -0.45454,-1.1219 -1.97332,-1.22028 -2.1327,-0.13816 -3.09414,0.37306 -3.09414,1.64521 0,0.76608 -0.26036,1.1069 -1.18099,1.54592 -0.75354,0.35933 -1.36138,0.44898 -1.67938,0.24767 -1.05916,-0.6705 -2.25424,-0.34124 -3.23842,0.89223 -1.11648,1.39926 -1.21411,2.17085 -0.38992,3.08156 0.76542,0.84579 0.25404,2.88143 -0.77167,3.07173 -1.21971,0.22629 -1.57845,0.80486 -1.57845,2.54568 0,1.91032 0.62795,2.81039 1.96072,2.81039 1.21179,0 2.11385,1.74261 1.39413,2.69318 -0.79385,1.04848 -0.62139,1.74639 0.72331,2.92705 1.37074,1.20352 2.44338,1.38423 3.34942,0.56427 0.39334,-0.35596 0.94817,-0.46116 1.67039,-0.31672 0.83871,0.16774 1.12777,0.44804 1.28794,1.24889 0.11967,0.59835 0.51515,1.14677 0.94042,1.30409 0.90185,0.33361 3.18795,0.10778 3.78807,-0.37422 z m -23.06955,-9.81415 c 0.29179,-0.24216 0.53053,-0.95219 0.53053,-1.57785 0,-1.01146 0.15496,-1.1887 1.39804,-1.59895 1.21564,-0.4012 1.51386,-0.38552 2.28566,0.12019 1.29025,0.8454 2.14333,0.72098 3.55499,-0.51847 1.59504,-1.40047 1.87505,-2.48531 1.04117,-4.03375 -0.61238,-1.13712 -0.61501,-1.26717 -0.0496,-2.45291 0.47498,-0.99604 0.80074,-1.25212 1.59277,-1.25212 1.50735,0 1.8442,-0.59184 1.8442,-3.24026 0,-2.58524 -0.38239,-3.12371 -2.21827,-3.12371 -0.67515,0 -0.94436,-0.28429 -1.30556,-1.37875 -0.39343,-1.1921 -0.37716,-1.48992 0.12018,-2.19999 0.89639,-1.27976 0.69497,-2.1061 -0.91261,-3.74411 -1.64836,-1.67956 -2.25781,-1.829 -3.50263,-0.85886 -0.81749,0.6371 -0.88894,0.63754 -2.34577,0.0145 -1.26437,-0.54074 -1.5026,-0.80187 -1.5026,-1.64707 0,-1.490694 -0.59747,-1.852974 -3.05587,-1.852974 -1.88021,0 -2.28891,0.11645 -2.75772,0.78577 -0.3027,0.43218 -0.55199,1.108354 -0.55397,1.502604 -0.003,0.49895 -0.42954,0.89571 -1.40495,1.30534 -1.33492,0.5606 -1.44213,0.55641 -2.26187,-0.0884 -1.24228,-0.97718 -1.81113,-0.85305 -3.58533,0.78235 -1.75219,1.61511 -1.92504,2.37079 -0.87845,3.84059 0.64803,0.91007 0.66343,1.0882 0.19175,2.2171 -0.38944,0.93205 -0.78497,1.28194 -1.64322,1.45359 -1.80275,0.36055 -2.0816,0.79284 -2.0816,3.22706 0,2.45995 0.24518,2.8226 2.14878,3.17826 1.02922,0.1923 1.34655,0.46214 1.70314,1.44827 0.38989,1.07824 0.35761,1.31445 -0.29262,2.14109 -1.03762,1.31912 -0.9256,1.84604 0.75696,3.56044 1.65443,1.68575 2.94851,1.9622 3.95889,0.84574 0.56894,-0.62867 0.69296,-0.63631 1.99934,-0.12315 1.22043,0.4794 1.39277,0.68823 1.39277,1.68762 0,1.19686 0.4144,1.73078 1.591,2.04988 1.10515,0.29972 3.65593,0.0177 4.24244,-0.46907 z m 25.95315,-15.82167 c 0.83707,-3.19283 0.84296,-3.27037 0.24832,-3.27037 -0.37021,0 -0.56865,-0.30713 -0.56865,-0.88009 0,-1.25811 -1.20604,-4.26031 -2.27382,-5.66024 -1.12923,-1.4805 -4.67821,-3.232504 -7.18407,-3.546524 -1.02107,-0.12795 -1.7674,-0.37679 -1.65851,-0.55297 0.10888,-0.17618 0.004,-0.32033 -0.23376,-0.32033 -0.77178,0 -4.20619,1.18241 -4.20619,1.44813 0,0.41755 4.39112,1.274764 4.64586,0.90694 0.31923,-0.46094 2.62734,0.0198 4.78717,0.997184 2.58387,1.16921 4.03219,3.2573 4.8683,7.01881 0.14503,0.65251 0.0945,0.92264 -0.14503,0.77463 -0.5983,-0.36978 -0.43796,0.3663 0.86451,3.96871 0.26675,0.73777 0.4916,0.50555 0.85587,-0.88388 z"
       id="path77" />
    <path
       style="fill:#ffffff;stroke-width:0.35411"
       d="m 390.57618,-82.604996 c -3.06818,-1.87079 -3.35383,-5.71526 -0.60404,-8.12961 1.00555,-0.88288 1.53686,-1.07833 2.93133,-1.07833 2.2879,0 3.87334,1.08715 4.78165,3.27883 0.68763,1.65916 0.68763,1.68267 0,3.34183 -1.24783,3.01091 -4.48309,4.18837 -7.10894,2.58728 z"
       id="path79" />
    <path
       style="fill:#ffffff;stroke-width:0.35411"
       d="m 395.57904,-59.800286 c -1.20597,-1.20597 -1.20597,-3.42237 0,-4.62834 1.31059,-1.31059 3.37641,-1.21139 4.58083,0.21998 1.16978,1.3902 1.16978,2.79818 0,4.188386 -1.20442,1.431369 -3.27024,1.530571 -4.58083,0.219974 z"
       id="path81" />
    <path
       style="fill:#ffffff;stroke-width:0.35411"
       d="m 413.71916,-70.799626 c -2.66379,-1.44536 -2.62059,-5.64938 0.0724,-7.04197 3.63329,-1.87884 7.36451,1.85238 5.48567,5.48567 -0.99038,1.91517 -3.56697,2.63664 -5.55804,1.5563 z"
       id="path83" />
  </g>
</svg>
